<?xml version="1.0" encoding="UTF-8"?>
<svg id="Layer_2" data-name="Layer 2" xmlns="http://www.w3.org/2000/svg" xmlns:xlink="http://www.w3.org/1999/xlink" viewBox="0 0 726.07 203.9">
  <defs>
    <style>
      .cls-1 {
        fill: #3866f2;
      }

      .cls-2 {
        fill: url(#linear-gradient-2);
      }

      .cls-3 {
        fill: url(#linear-gradient);
      }
    </style>
    <linearGradient id="linear-gradient" x1="112.01" y1="35.58" x2="136.24" y2="127.63" gradientUnits="userSpaceOnUse">
      <stop offset="0" stop-color="#010626"/>
      <stop offset=".01" stop-color="#010626"/>
      <stop offset=".23" stop-color="#010626"/>
      <stop offset=".6" stop-color="#022c70"/>
      <stop offset="1" stop-color="#0455bf"/>
    </linearGradient>
    <linearGradient id="linear-gradient-2" x1="14.18" y1="51.77" x2="161.9" y2="51.77" gradientUnits="userSpaceOnUse">
      <stop offset="0" stop-color="#09402c"/>
      <stop offset=".04" stop-color="#09402c"/>
      <stop offset=".31" stop-color="#09402c"/>
      <stop offset=".64" stop-color="#108361"/>
      <stop offset=".88" stop-color="#15ae83"/>
      <stop offset="1" stop-color="#17bf90"/>
    </linearGradient>
  </defs>
  <g id="Layer_3" data-name="Layer 3">
    <g>
      <path class="cls-3" d="M177.1,87.5c0,46.42-36.59,84.4-82.83,87.32,19.04-14.42,31.33-37.27,31.33-62.99,0-1.48-.04-2.95-.12-4.4-.1-1.82-.26-3.61-.48-5.39-2.69-21.78-14.26-40.81-30.97-53.37-1.43-1.07-2.89-2.1-4.39-3.07,12.38-8.05,27.15-12.73,43.01-12.73,10.33,0,20.2,1.98,29.25,5.59.1.14.19.28.29.43,1.56,2.3,3.01,4.67,4.34,7.12.05.1.11.2.16.3,6.65,12.28,10.42,26.31,10.42,41.2Z"/>
      <path class="cls-1" d="M120.66,111.83c0,24.84-12.24,46.83-31.02,60.26-1.4,1-2.83,1.95-4.3,2.85-.06,0-.12,0-.18,0C37.83,173.17,0,134.7,0,87.5c0-14.34,3.49-27.88,9.68-39.83.04-.02.08-.05.12-.07,3.35,27.05,20.37,49.85,43.93,61.29,1.6.78,3.24,1.5,4.9,2.17,9.13,3.69,19.1,5.71,29.54,5.71,11.57,0,22.55-2.49,32.46-6.96.02.67.03,1.34.03,2.01Z"/>
      <path class="cls-2" d="M161.9,38.46c-9.05-3.61-18.92-5.59-29.25-5.59-15.86,0-30.63,4.68-43.01,12.73-1.5.98-2.97,2-4.4,3.07-17.09,12.85-28.8,32.47-31.14,54.88-21.69-11.26-37.11-32.95-39.6-58.42-.17-1.69-.28-3.41-.33-5.13.05-.08.11-.17.16-.25C30.14,15.82,57.48,0,88.55,0s57.42,15.25,73.35,38.46Z"/>
    </g>
    <polygon class="cls-1" points="359.25 31.23 366.52 0 218.94 0 211.66 31.23 231.68 31.23 195.55 174.94 237.92 174.94 274.05 31.23 359.25 31.23"/>
    <path class="cls-1" d="M344.36,101.2l8.32-32.99c1.3-5.31,2.08-9.74,2.08-13.29,0-10.19-5.98-13.73-18.98-13.73-11.44,0-18.97,1.99-24.17,7.09l1.56-5.98h-34.57l-33.01,132.64h37.17l25.47-102.31c1.56-1.99,3.38-3.1,5.72-3.1,3.12,0,4.16.66,4.16,2.21l-7.28,29.45h33.53Z"/>
    <polygon class="cls-1" points="413.11 0 376.2 0 367.75 31.3 404.66 31.3 413.11 0"/>
    <polygon class="cls-1" points="365.8 42.3 332.79 174.94 369.7 174.94 402.71 42.3 365.8 42.3"/>
    <path class="cls-1" d="M430.91,143.27l18.46-75.51h13.52l6.5-25.47h-13.52L467.43,0h-37.17l-11.57,42.3h-8.84l-6.5,25.47h8.84l-19.75,79.05c-.78,3.32-1.3,6.2-1.3,8.86,0,13.29,10.4,19.27,36.13,19.27h8.84l6.5-27.02h-4.16c-5.2,0-7.54-1.33-7.54-4.65Z"/>
    <path class="cls-1" d="M500.18,127.55l-3.9,15.5c-1.04,3.76-1.82,4.87-6.24,4.87-2.86,0-3.9-.44-3.9-1.99l7.02-29.23h43.41l12.74-50.71c1.3-5.54,2.08-9.96,2.08-13.51,0-12.62-9.1-14.62-33.79-14.62-33.79,0-41.59,3.32-47.83,28.12l-20.27,80.83c-1.3,5.54-2.08,9.74-2.08,13.29,0,12.84,9.36,14.84,35.87,14.84,31.97,0,39.25-3.32,45.75-28.12l4.94-19.27h-33.79ZM504.86,70.42c.78-3.76,1.3-4.87,5.72-4.87,3.12,0,4.16.66,4.16,2.44l-5.72,24.36h-9.62l5.46-21.92Z"/>
    <path class="cls-1" d="M623.8,110.28h-33.79l-7.54,30.34c-1.04,3.76-1.56,4.87-5.98,4.87-3.12,0-3.9-.66-3.9-2.44l17.41-70.86c1.04-3.76,1.82-4.87,5.98-4.87,3.12,0,4.16.66,4.16,2.21l-4.68,19.71h33.79l5.72-23.25c1.3-5.54,2.08-9.96,2.08-13.51,0-12.62-9.1-14.62-33.79-14.62-33.79,0-41.59,3.32-47.83,28.12l-20.27,80.83c-1.3,5.54-2.08,9.74-2.08,13.29,0,12.84,9.36,14.84,35.87,14.84,31.71,0,39.51-3.32,45.75-28.12l9.1-36.54Z"/>
    <path class="cls-1" d="M703.97,41.19c-9.36,0-16.64,1.99-22.09,7.09l11.96-48.27h-37.17l-43.41,174.94h37.17l25.47-102.31c1.56-1.99,3.38-3.1,5.72-3.1,3.12,0,4.16.66,4.16,2.21l-25.47,103.19h37.43l26.51-106.73c1.3-5.09,1.82-9.3,1.82-12.62,0-10.63-6.5-14.39-22.09-14.39Z"/>
    <g>
      <path class="cls-1" d="M336.85,187.09l-2.81,13.22h7.18l-.71,3.3h-10.98l3.52-16.52h3.8Z"/>
      <path class="cls-1" d="M342.87,198.9l1.46-6.85h3.61l-1.3,6.11c-.38,1.75.14,2.64,1.54,2.64,1.51,0,2.53-1.13,2.95-2.88l1.25-5.88h3.61l-2.46,11.57h-3.26l.09-1.63h-.07c-.83,1.06-2.24,1.91-4.08,1.91-2.86,0-4.04-1.79-3.35-5Z"/>
      <path class="cls-1" d="M363.23,203.9c-1.72,0-3-.75-3.4-1.96h-.09l-.35,1.68h-3.61l3.61-17h3.61l-1.51,7.11h.09c.92-1.2,2.5-1.96,4.23-1.96,3.07,0,4.72,2.48,3.97,6.07-.76,3.59-3.45,6.07-6.54,6.07ZM363.91,194.98c-1.53,0-2.93,1.06-3.3,2.86s.57,2.86,2.08,2.86,2.93-1.11,3.3-2.86-.57-2.86-2.08-2.86Z"/>
      <path class="cls-1" d="M375.9,194.39h.09c.8-1.7,2.29-2.62,3.82-2.62.52,0,1.09.09,1.39.26l-.73,3.45c-.38-.19-1.04-.33-1.72-.33-1.94,0-3.23,1.3-3.75,3.47l-1.06,5.03h-3.61l2.46-11.59h3.61l-.5,2.34Z"/>
      <path class="cls-1" d="M386.58,192.05l-2.46,11.57h-3.61l2.46-11.57h3.61ZM387.76,188.2c-.26,1.2-1.35,2.08-2.62,2.08s-1.98-.87-1.72-2.08,1.35-2.08,2.62-2.08,1.98.87,1.72,2.08Z"/>
      <path class="cls-1" d="M394.75,191.77c1.09,0,2.29.19,3.14.52l-.71,3.3c-.54-.35-1.56-.61-2.46-.61-1.98,0-3.38,1.09-3.75,2.86s.54,2.86,2.53,2.86c.92,0,2.03-.26,2.71-.61l-.68,3.3c-.99.33-2.27.52-3.35.52-3.92,0-5.76-2.43-4.98-6.07.78-3.68,3.68-6.07,7.55-6.07Z"/>
      <path class="cls-1" d="M404.59,191.77c1.75,0,3.02.75,3.45,1.96h.07l.35-1.68h3.61l-2.46,11.57h-3.61l.35-1.68h-.07c-.94,1.2-2.53,1.96-4.27,1.96-3.07,0-4.72-2.48-3.97-6.07.76-3.59,3.47-6.07,6.54-6.07ZM403.93,200.69c1.53,0,2.93-1.06,3.3-2.86s-.57-2.86-2.1-2.86-2.93,1.11-3.3,2.86.57,2.86,2.1,2.86Z"/>
      <path class="cls-1" d="M420.15,191.77c1.09,0,2.29.19,3.14.52l-.71,3.3c-.54-.35-1.56-.61-2.46-.61-1.98,0-3.38,1.09-3.75,2.86s.54,2.86,2.53,2.86c.92,0,2.03-.26,2.71-.61l-.68,3.3c-.99.33-2.27.52-3.35.52-3.92,0-5.76-2.43-4.98-6.07.78-3.68,3.68-6.07,7.55-6.07Z"/>
      <path class="cls-1" d="M429.17,192.05l-2.46,11.57h-3.61l2.46-11.57h3.61ZM430.35,188.2c-.26,1.2-1.35,2.08-2.62,2.08s-1.98-.87-1.72-2.08,1.35-2.08,2.62-2.08,1.98.87,1.72,2.08Z"/>
      <path class="cls-1" d="M442.75,197.83c-.76,3.59-4.01,6.07-7.77,6.07s-5.95-2.48-5.19-6.07c.76-3.59,4.01-6.07,7.77-6.07s5.97,2.48,5.19,6.07ZM433.56,197.83c-.38,1.75.57,2.86,2.1,2.86s2.93-1.06,3.3-2.86-.57-2.86-2.1-2.86-2.93,1.11-3.3,2.86ZM439.18,191.15h-2.9l2.71-3.94h3.78l-3.59,3.94Z"/>
      <path class="cls-1" d="M449.05,193.63h.07c.83-1.06,2.22-1.86,4.01-1.86,2.57,0,3.99,1.77,3.45,4.27l-1.6,7.58h-3.61l1.3-6.11c.38-1.75-.14-2.64-1.61-2.64s-2.46,1.13-2.88,2.86l-1.25,5.9h-3.61l2.46-11.57h3.61l-.33,1.58Z"/>
      <path class="cls-1" d="M470.68,191.77c1.75,0,3.02.75,3.45,1.96h.07l1.51-7.11h3.61l-3.61,17h-3.61l.35-1.68h-.07c-.94,1.2-2.53,1.96-4.27,1.96-3.07,0-4.72-2.48-3.97-6.07.76-3.59,3.47-6.07,6.54-6.07ZM470.02,200.69c1.53,0,2.93-1.06,3.3-2.86s-.57-2.86-2.1-2.86-2.93,1.11-3.3,2.86.57,2.86,2.1,2.86Z"/>
      <path class="cls-1" d="M490.61,197.27c-.09.45-.24.9-.4,1.32h-7.77c-.02,1.44.99,2.1,2.69,2.1,1.3,0,2.81-.31,4.25-.8l-.64,2.97c-1.56.66-3.16,1.04-4.75,1.04-3.97,0-5.97-2.38-5.19-6,.76-3.61,3.78-6.16,7.27-6.16s5.19,2.36,4.53,5.52ZM482.84,196.65h4.32c.17-1.27-.52-1.98-1.7-1.98-1.28,0-2.22.8-2.62,1.98Z"/>
      <path class="cls-1" d="M510.68,187.12l2.03,16.52h-4.23l-.33-2.71h-6.23l-1.49,2.71h-4.23l9.06-16.52h5.41ZM507.91,197.62l-.64-7.01h-.09l-3.64,7.01h4.37Z"/>
      <path class="cls-1" d="M517.62,186.62h3.61l-3.61,17h-3.61l3.61-17Z"/>
      <path class="cls-1" d="M527.68,188.86l-.66,3.19h2.95l-.66,3.16h-2.97l-.75,3.54c-.28,1.39.02,1.96,1.13,1.96.5,0,1.2-.12,1.82-.31l-.66,3.12c-.78.21-1.98.38-2.83.38-2.69,0-3.85-1.42-3.16-4.65l.85-4.04h-2.05l.68-3.16h2.03l.68-3.19h3.61Z"/>
      <path class="cls-1" d="M543.33,197.83c-.76,3.59-4.01,6.07-7.77,6.07s-5.95-2.48-5.19-6.07c.76-3.59,4.01-6.07,7.77-6.07s5.97,2.48,5.19,6.07ZM534.15,197.83c-.38,1.75.57,2.86,2.1,2.86s2.93-1.06,3.3-2.86-.57-2.86-2.1-2.86-2.93,1.11-3.3,2.86Z"/>
      <path class="cls-1" d="M561.56,196.94l-.02.09,3.05,6.56h-4.91l-1.96-6h-2.38l-1.27,6h-3.8l3.52-16.5h7.25c4.25,0,5.59,2.6,5.03,5.24-.4,1.96-1.98,3.85-4.48,4.6ZM560,190.4h-3.14l-.85,4.04h3.14c1.75,0,2.67-1.01,2.88-2.03.21-1.04-.26-2.01-2.03-2.01Z"/>
      <path class="cls-1" d="M577.95,197.27c-.09.45-.24.9-.4,1.32h-7.77c-.02,1.44.99,2.1,2.69,2.1,1.3,0,2.81-.31,4.25-.8l-.64,2.97c-1.56.66-3.16,1.04-4.75,1.04-3.97,0-5.97-2.38-5.19-6,.76-3.61,3.78-6.16,7.27-6.16s5.19,2.36,4.53,5.52ZM570.18,196.65h4.32c.17-1.27-.52-1.98-1.7-1.98-1.28,0-2.22.8-2.62,1.98Z"/>
      <path class="cls-1" d="M584.06,193.63h.07c.83-1.06,2.22-1.86,4.01-1.86,2.57,0,3.99,1.77,3.45,4.27l-1.6,7.58h-3.61l1.3-6.11c.38-1.75-.14-2.64-1.61-2.64s-2.46,1.13-2.88,2.86l-1.25,5.9h-3.61l2.46-11.57h3.61l-.33,1.58Z"/>
      <path class="cls-1" d="M599.55,191.77c1.75,0,3.02.75,3.45,1.96h.07l1.51-7.11h3.61l-3.61,17h-3.61l.35-1.68h-.07c-.94,1.2-2.53,1.96-4.27,1.96-3.07,0-4.72-2.48-3.97-6.07.76-3.59,3.47-6.07,6.54-6.07ZM598.89,200.69c1.53,0,2.93-1.06,3.3-2.86s-.57-2.86-2.1-2.86-2.93,1.11-3.3,2.86.57,2.86,2.1,2.86Z"/>
      <path class="cls-1" d="M613.39,192.05l-2.46,11.57h-3.61l2.46-11.57h3.61ZM614.57,188.2c-.26,1.2-1.35,2.08-2.62,2.08s-1.98-.87-1.72-2.08,1.35-2.08,2.62-2.08,1.98.87,1.72,2.08Z"/>
      <path class="cls-1" d="M626.44,193.99h.07c.83-1.09,2.31-2.22,4.39-2.22,2.6,0,3.94,1.72,3.4,4.27l-1.6,7.58h-3.61l1.3-6.11c.38-1.75-.12-2.64-1.51-2.64s-2.31,1.09-2.79,2.81l-1.25,5.95h-3.61l1.3-6.11c.38-1.75-.12-2.64-1.51-2.64s-2.38,1.13-2.81,2.86l-1.25,5.9h-3.61l2.46-11.57h3.61l-.33,1.58h.07c.83-1.06,2.24-1.86,4.04-1.86s2.93.83,3.26,2.22Z"/>
      <path class="cls-1" d="M641.2,192.05l-2.46,11.57h-3.61l2.46-11.57h3.61ZM642.38,188.2c-.26,1.2-1.35,2.08-2.62,2.08s-1.98-.87-1.72-2.08,1.35-2.08,2.62-2.08,1.98.87,1.72,2.08Z"/>
      <path class="cls-1" d="M653.62,197.27c-.09.45-.24.9-.4,1.32h-7.77c-.02,1.44.99,2.1,2.69,2.1,1.3,0,2.81-.31,4.25-.8l-.64,2.97c-1.56.66-3.16,1.04-4.75,1.04-3.97,0-5.97-2.38-5.19-6,.76-3.61,3.78-6.16,7.27-6.16s5.19,2.36,4.53,5.52ZM645.85,196.65h4.32c.17-1.27-.52-1.98-1.7-1.98-1.28,0-2.22.8-2.62,1.98Z"/>
      <path class="cls-1" d="M659.74,193.63h.07c.83-1.06,2.22-1.86,4.01-1.86,2.57,0,3.99,1.77,3.45,4.27l-1.6,7.58h-3.61l1.3-6.11c.38-1.75-.14-2.64-1.61-2.64s-2.46,1.13-2.88,2.86l-1.25,5.9h-3.61l2.46-11.57h3.61l-.33,1.58Z"/>
      <path class="cls-1" d="M675.63,188.86l-.66,3.19h2.95l-.66,3.16h-2.97l-.76,3.54c-.28,1.39.02,1.96,1.13,1.96.5,0,1.2-.12,1.82-.31l-.66,3.12c-.78.21-1.98.38-2.83.38-2.69,0-3.85-1.42-3.16-4.65l.85-4.04h-2.05l.68-3.16h2.03l.68-3.19h3.61Z"/>
      <path class="cls-1" d="M691.28,197.83c-.76,3.59-4.01,6.07-7.77,6.07s-5.95-2.48-5.19-6.07c.76-3.59,4.01-6.07,7.77-6.07s5.97,2.48,5.19,6.07ZM682.1,197.83c-.38,1.75.57,2.86,2.1,2.86s2.93-1.06,3.3-2.86-.57-2.86-2.1-2.86-2.93,1.11-3.3,2.86Z"/>
    </g>
  </g>
</svg>